<svg viewBox="0 0 400 260" xmlns="http://www.w3.org/2000/svg" role="img" aria-label="Illustration d'une maison d'hôtes avec palmier">
  <rect width="400" height="260" fill="#FAF7F2"/>
  <rect x="0" y="225" width="400" height="35" fill="#EFE8DA"/>
  <rect x="80" y="90" width="200" height="135" fill="#C1602E"/>
  <rect x="80" y="76" width="200" height="16" fill="#A8501F"/>
  <path d="M 140 225 L 140 160 A 40 40 0 0 1 220 160 L 220 225 Z" fill="#FAF7F2"/>
  <rect x="100" y="115" width="28" height="28" fill="#3B4FA0" opacity="0.85"/>
  <rect x="232" y="115" width="28" height="28" fill="#3B4FA0" opacity="0.85"/>
  <g>
    <rect x="318" y="160" width="10" height="65" fill="#A8501F"/>
    <path d="M323 160 Q300 130 280 145" stroke="#5B7553" stroke-width="8" fill="none" stroke-linecap="round"/>
    <path d="M323 160 Q346 130 366 145" stroke="#5B7553" stroke-width="8" fill="none" stroke-linecap="round"/>
    <path d="M323 158 Q310 120 320 95" stroke="#5B7553" stroke-width="8" fill="none" stroke-linecap="round"/>
    <path d="M323 158 Q336 120 326 95" stroke="#5B7553" stroke-width="8" fill="none" stroke-linecap="round"/>
  </g>
  <rect x="40" y="200" width="24" height="25" fill="#5B7553" opacity="0.6"/>
</svg>
