<svg viewBox="0 0 400 260" xmlns="http://www.w3.org/2000/svg" role="img" aria-label="Illustration d'un immeuble de bureaux">
  <rect width="400" height="260" fill="#FAF7F2"/>
  <rect x="0" y="230" width="400" height="30" fill="#EFE8DA"/>
  <rect x="130" y="30" width="140" height="200" fill="#3B4FA0" opacity="0.92"/>
  <g fill="#FAF7F2" opacity="0.85">
    <rect x="145" y="48" width="20" height="20"/>
    <rect x="180" y="48" width="20" height="20"/>
    <rect x="215" y="48" width="20" height="20"/>
    <rect x="250" y="48" width="20" height="20"/>
    <rect x="145" y="80" width="20" height="20"/>
    <rect x="180" y="80" width="20" height="20"/>
    <rect x="215" y="80" width="20" height="20"/>
    <rect x="250" y="80" width="20" height="20"/>
    <rect x="145" y="112" width="20" height="20"/>
    <rect x="180" y="112" width="20" height="20"/>
    <rect x="215" y="112" width="20" height="20"/>
    <rect x="250" y="112" width="20" height="20"/>
    <rect x="145" y="144" width="20" height="20"/>
    <rect x="180" y="144" width="20" height="20"/>
    <rect x="215" y="144" width="20" height="20"/>
    <rect x="250" y="144" width="20" height="20"/>
  </g>
  <rect x="180" y="190" width="40" height="40" fill="#C1602E"/>
</svg>
