<svg viewBox="0 0 400 260" xmlns="http://www.w3.org/2000/svg" role="img" aria-label="Illustration d'une devanture de magasin">
  <rect width="400" height="260" fill="#FAF7F2"/>
  <rect x="0" y="230" width="400" height="30" fill="#EFE8DA"/>
  <rect x="70" y="90" width="260" height="140" fill="#D9A06B"/>
  <rect x="70" y="70" width="260" height="26" fill="#C1602E"/>
  <g fill="#C1602E">
    <polygon points="70,70 100,70 90,96 60,96"/>
    <polygon points="130,70 160,70 150,96 120,96"/>
    <polygon points="190,70 220,70 210,96 180,96"/>
    <polygon points="250,70 280,70 270,96 240,96"/>
    <polygon points="310,70 340,70 330,96 300,96"/>
  </g>
  <rect x="100" y="120" width="80" height="70" fill="#3B4FA0" opacity="0.55"/>
  <rect x="220" y="120" width="80" height="70" fill="#3B4FA0" opacity="0.55"/>
  <rect x="180" y="190" width="40" height="40" fill="#A8501F"/>
</svg>
