<svg viewBox="0 0 400 260" xmlns="http://www.w3.org/2000/svg" role="img" aria-label="Illustration d'une villa avec piscine">
  <rect width="400" height="260" fill="#FAF7F2"/>
  <rect x="0" y="190" width="400" height="70" fill="#EFE8DA"/>
  <rect x="60" y="110" width="220" height="90" fill="#C1602E"/>
  <rect x="60" y="95" width="220" height="18" fill="#A8501F"/>
  <rect x="280" y="140" width="70" height="60" fill="#D9A06B"/>
  <rect x="280" y="128" width="70" height="14" fill="#A8501F"/>
  <rect x="85" y="150" width="36" height="50" fill="#FAF7F2"/>
  <rect x="140" y="135" width="34" height="34" fill="#3B4FA0" opacity="0.85"/>
  <rect x="195" y="135" width="34" height="34" fill="#3B4FA0" opacity="0.85"/>
  <rect x="295" y="155" width="24" height="24" fill="#3B4FA0" opacity="0.85"/>
  <ellipse cx="170" cy="225" rx="110" ry="22" fill="#3B4FA0" opacity="0.35"/>
  <ellipse cx="170" cy="220" rx="100" ry="18" fill="#7FA8C9"/>
  <rect x="20" y="195" width="20" height="40" fill="#5B7553"/>
  <ellipse cx="30" cy="190" rx="22" ry="16" fill="#5B7553"/>
  <rect x="355" y="200" width="14" height="35" fill="#5B7553"/>
  <ellipse cx="362" cy="196" rx="16" ry="12" fill="#5B7553"/>
</svg>
